<svg width="312" height="353" viewBox="0 0 312 353" fill="none" xmlns="http://www.w3.org/2000/svg">
<path d="M273.28 125.12H233.53C226.338 114.218 210.331 105.781 190.454 102.621L221.206 22.944L180.472 101.512C178.034 101.353 175.558 101.269 173.046 101.269C170.544 101.269 168.076 101.352 165.65 101.51L124.096 21.388L155.46 102.65C135.668 105.832 119.735 114.25 112.563 125.119H37.915C30.689 125.119 24.845 130.748 24.845 137.678V301.078C24.845 308.016 30.689 313.644 37.915 313.644H54.351C55.502 319.299 61.294 323.612 68.285 323.612C75.275 323.612 81.065 319.3 82.216 313.644H231.786C231.786 313.663 231.783 313.679 231.783 313.699C231.783 320.343 238.13 325.73 245.939 325.73C253.759 325.73 260.094 320.341 260.094 313.699C260.094 313.679 260.091 313.663 260.091 313.644H273.279C280.505 313.644 286.352 308.014 286.352 301.078V137.688C286.362 130.758 280.512 125.128 273.292 125.128L273.28 125.12ZM236.34 268.88C236.34 273.707 232.082 278.053 226.837 278.505C169.627 283.272 112.377 283.272 55.157 278.505C49.899 278.053 45.645 273.707 45.645 268.88C45.634 230.942 45.645 193.019 45.645 155.09C45.645 150.243 49.899 145.918 55.157 145.459C112.369 140.694 169.627 140.694 226.837 145.459C232.082 145.918 236.34 150.244 236.34 155.09V268.88V268.88ZM245.23 165.78C245.23 157.958 250.469 151.623 256.918 151.623C263.363 151.623 268.594 157.958 268.594 165.78C268.594 173.594 263.365 179.93 256.918 179.93C250.458 179.93 245.228 173.6 245.228 165.78H245.23ZM257.98 220.99C251.523 220.99 246.297 214.64 246.297 206.826C246.297 199.016 251.523 192.67 257.98 192.67C264.431 192.67 269.663 199.018 269.663 206.826C269.663 214.636 264.433 220.986 257.983 220.986L257.98 220.99Z" fill="black"/>
<path d="M226.84 145.46C169.63 140.695 112.38 140.695 55.16 145.46C49.902 145.919 45.648 150.245 45.648 155.091C45.648 193.016 45.637 230.941 45.648 268.881C45.648 273.708 49.902 278.054 55.16 278.506C112.372 283.273 169.63 283.273 226.84 278.506C232.085 278.054 236.343 273.708 236.343 268.881V155.101C236.343 150.251 232.083 145.921 226.843 145.461L226.84 145.46ZM256.91 179.93C263.355 179.93 268.586 173.595 268.586 165.78C268.586 157.958 263.357 151.623 256.91 151.623C250.461 151.623 245.222 157.958 245.222 165.78C245.232 173.6 250.462 179.93 256.912 179.93H256.91ZM257.98 192.67C251.523 192.67 246.297 199.018 246.297 206.826C246.297 214.64 251.523 220.99 257.98 220.99C264.431 220.99 269.663 214.64 269.663 206.826C269.663 199.016 264.433 192.666 257.983 192.666L257.98 192.67Z" fill="white"/>
<path d="M121.695 184.703C119.709 204.274 121.996 223.909 120.898 243.512H127.953L127.949 241.379C125.758 241.973 123.566 242.566 121.375 243.16C124.948 251.538 124.894 263.256 114.949 266.967C110.86 268.494 99.7846 265.975 102.56 259.697C105.014 254.149 118.688 247.904 122.051 255.254C123.942 259.387 130.021 255.798 128.142 251.694C121.523 237.223 91.585 248.585 95.3214 263.476C97.8119 273.398 110.753 277.117 119.299 272.807C132.043 266.383 132.48 251.362 127.467 239.601C126.03 236.231 120.887 238.118 120.892 241.382L120.897 243.515C120.905 248.094 127.699 248.026 127.952 243.515C129.05 223.912 126.762 204.277 128.749 184.706C129.211 180.177 122.15 180.223 121.695 184.703Z" fill="black"/>
<path d="M170.25 153.377C168.263 172.949 170.55 192.583 169.452 212.186H176.508C176.506 211.476 176.505 210.765 176.503 210.054C174.312 210.646 172.121 211.24 169.929 211.834C173.502 220.213 173.45 231.932 163.502 235.643C159.414 237.168 148.337 234.648 151.114 228.372C153.568 222.824 167.244 216.578 170.605 223.928C172.496 228.061 178.575 224.473 176.697 220.368C170.077 205.899 140.138 217.258 143.876 232.148C146.366 242.07 159.308 245.79 167.854 241.482C180.597 235.057 181.034 220.035 176.021 208.274C174.584 204.906 169.441 206.791 169.447 210.055C169.448 210.765 169.45 211.476 169.451 212.187C169.459 216.766 176.254 216.698 176.506 212.187C177.604 192.583 175.317 172.949 177.303 153.379C177.763 148.852 170.704 148.896 170.25 153.377Z" fill="black"/>
<path d="M124.433 192.054C134.502 189.146 144.025 184.109 152.935 178.679C161.033 173.743 170.108 167.591 174.782 159.075C176.972 155.085 170.877 151.526 168.689 155.515C164.267 163.571 155.335 168.954 147.719 173.595C139.88 178.373 131.402 182.696 122.557 185.25C118.195 186.512 120.051 193.32 124.433 192.054Z" fill="black"/>
<path d="M120.82 249.23C113.115 249.182 100.997 249.703 100.006 259.772C99.6759 263.137 102.549 266.147 105.375 267.406C108.636 268.858 111.966 268.726 115.3 267.657C118.386 266.666 121.501 265.01 123.703 262.597C125.721 260.387 127.162 255.758 124.4 253.439C119.764 249.543 112.134 253.726 107.751 256.295C106.237 257.184 105.326 259.581 106.486 261.122C107.661 262.684 108.719 263.087 110.475 263.685C114.794 265.157 116.631 258.341 112.35 256.881C111.836 256.706 111.326 256.627 110.829 256.418C111.532 256.96 112.234 257.5 112.937 258.039C112.817 257.88 112.697 257.72 112.577 257.561C112.155 259.169 111.733 260.778 111.311 262.388C113.779 260.939 116.827 259.243 119.713 258.92C120.981 258.777 118.938 259.158 118.834 257.452C118.842 257.599 118.073 258.272 117.924 258.416C116.723 259.567 114.97 260.304 113.424 260.853C112.32 261.244 106.504 262.229 107.112 259.649C107.554 257.778 111.214 256.838 112.734 256.507C115.324 255.944 118.189 256.268 120.819 256.285C125.371 256.313 125.368 249.258 120.82 249.23Z" fill="black"/>
<path d="M173.17 224.381C167.027 217.512 156.935 216.71 151.059 224.343C149.122 226.859 148.026 230.486 149.238 233.556C150.867 237.685 155.03 239.255 159.202 239.415C162.952 239.56 167.793 239.063 170.722 236.467C174.71 232.932 171.843 227.558 168.024 225.301C163.879 222.853 157.473 220.776 154.703 226.292C152.154 231.366 158.623 235.658 163.152 235.108C165.061 234.875 166.68 233.679 166.68 231.581C166.68 229.835 165.065 227.82 163.152 228.053C162.442 228.14 161.891 228.05 161.237 227.73C159.716 226.982 162.609 227.474 160.781 229.745C161.385 229.344 161.287 229.337 160.487 229.722C160.669 229.818 160.868 229.875 161.081 229.892C162.277 230.208 163.389 230.799 164.464 231.394C164.905 231.638 165.01 231.798 165.386 232.18C165.987 232.791 165.547 232.996 165.727 231.723C165.762 231.472 165.966 231.281 166.152 231.146C165.747 231.441 165.483 231.524 165.075 231.661C164.117 231.986 163.103 232.165 162.098 232.266C160.306 232.447 158.126 232.589 156.578 231.812C156.143 231.593 155.781 231.016 155.926 231.384C155.654 230.693 155.744 230.79 155.839 230.343C156.059 229.302 156.976 227.95 157.937 227.225C161.521 224.523 165.252 226.092 168.185 229.371C171.22 232.769 176.193 227.761 173.17 224.381Z" fill="black"/>
</svg>
